<svg width="42" height="42" viewBox="0 0 42 42" fill="none" xmlns="http://www.w3.org/2000/svg">
<path d="M14.5633 8.12717C15.636 9.1999 17.7879 9.0111 20.9996 6.35932M20.9996 6.35932C20.5248 5.97028 20.032 5.52259 19.5214 5.01626C14.574 0.116051 7.83729 1.07507 4.68133 5.01626C2.50155 7.74099 -3.07663 14.5206 10.577 38.6784C11.1434 39.6782 12.2698 40.309 13.482 40.309C15.4172 40.309 16.9297 38.7642 16.9919 36.9621C17.1271 33.1389 17.8673 28.73 20.9996 28.73C24.132 28.73 24.8743 33.1389 25.0073 36.9621C25.0696 38.7642 26.5821 40.309 28.5173 40.309C29.7295 40.309 30.8558 39.6782 31.4222 38.6784C45.0781 14.5185 39.4977 7.74099 37.318 5.01626C34.162 1.07507 27.4253 0.116051 22.4779 5.01626C21.9672 5.52116 21.4745 5.96885 20.9996 6.35932Z" stroke="#469BD1" stroke-width="3.35321" stroke-linecap="round" stroke-linejoin="round"/>
<path d="M16.7086 18.8546H3.83588M38.1631 18.8546H25.2904M17.5389 15.394C16.4318 16.5011 16.4318 21.2082 17.5389 22.3152C18.6459 23.4223 23.3531 23.4223 24.4601 22.3152C25.5672 21.2082 25.5672 16.5011 24.4601 15.394C23.3531 14.287 18.6459 14.287 17.5389 15.394Z" stroke="#469BD1" stroke-width="3.35321" stroke-linecap="round" stroke-linejoin="round"/>
</svg>
