<svg width="27" height="27" viewBox="0 0 27 27" fill="none" xmlns="http://www.w3.org/2000/svg">
<path d="M13.7436 24.1559C16.528 24.1559 19.1983 23.0347 21.1671 21.039C23.136 19.0433 24.2421 16.3365 24.2421 13.5141C24.2421 10.6918 23.136 7.98498 21.1671 5.98926C19.1983 3.99354 16.528 2.87236 13.7436 2.87236C10.9593 2.87236 8.28896 3.99354 6.32013 5.98926C4.35129 7.98498 3.24521 10.6918 3.24521 13.5141C3.24521 16.3365 4.35129 19.0433 6.32013 21.039C8.28896 23.0347 10.9593 24.1559 13.7436 24.1559ZM13.7436 0.211914C15.467 0.211914 17.1734 0.555986 18.7656 1.22449C20.3578 1.89298 21.8044 2.87282 23.023 4.10805C24.2416 5.34327 25.2082 6.8097 25.8677 8.4236C26.5272 10.0375 26.8667 11.7673 26.8667 13.5141C26.8667 17.0421 25.4841 20.4256 23.023 22.9202C20.562 25.4149 17.2241 26.8164 13.7436 26.8164C6.4866 26.8164 0.620605 20.8304 0.620605 13.5141C0.620605 9.98617 2.00321 6.6027 4.46425 4.10805C6.92529 1.61339 10.2632 0.211914 13.7436 0.211914ZM14.3998 6.86303V13.8467L20.3051 17.3984L19.3209 19.0346L12.4313 14.8444V6.86303H14.3998Z" fill="#0E2321"/>
</svg>
