<svg width="52" height="52" viewBox="0 0 52 52" fill="none" xmlns="http://www.w3.org/2000/svg">
<path d="M33.0025 13.3961C36.6924 13.3963 39.3042 16.9365 39.3043 20.6783C39.3043 21.9807 38.9759 23.5626 38.4693 24.9889C37.9555 26.4353 37.3003 27.6028 36.7213 28.153C36.4445 28.4159 36.2239 28.8109 36.0406 29.2047C35.8483 29.6179 35.6586 30.1161 35.4703 30.653C35.2813 31.1916 35.0871 31.7869 34.8882 32.3951C34.6884 33.0064 34.4831 33.6341 34.2672 34.2496C33.8316 35.4911 33.3703 36.6364 32.8648 37.4625C32.3267 38.3418 31.8954 38.6039 31.6021 38.6041C30.216 38.6041 29.4733 38.1138 29.0142 37.4508C28.5155 36.7304 28.2884 35.7168 28.1627 34.5709C28.1006 34.0054 28.0658 33.4426 28.025 32.8864C27.985 32.3424 27.9386 31.798 27.8511 31.3199C27.7658 30.8539 27.6277 30.3651 27.3521 29.9821C27.0446 29.5549 26.5869 29.2906 25.9996 29.2906C25.4125 29.2908 24.9555 29.555 24.648 29.9821C24.3724 30.3651 24.2333 30.8539 24.148 31.3199C24.0605 31.798 24.0151 32.3424 23.9752 32.8864C23.9343 33.4426 23.8995 34.0054 23.8375 34.5709C23.7117 35.7168 23.4846 36.7304 22.9859 37.4508C22.5268 38.1138 21.7842 38.6041 20.398 38.6041C20.1047 38.604 19.6735 38.3419 19.1353 37.4625C18.6298 36.6364 18.1686 35.4911 17.733 34.2496C17.517 33.6341 17.3118 33.0064 17.1119 32.3951C16.913 31.7869 16.7188 31.1916 16.5298 30.653C16.3415 30.1161 16.1518 29.6179 15.9595 29.2047C15.7762 28.8109 15.5556 28.4159 15.2789 28.153C14.6998 27.6028 14.0447 26.4354 13.5308 24.9889C13.0242 23.5626 12.6959 21.9807 12.6959 20.6783C12.6959 16.9364 15.3076 13.3963 18.9976 13.3961C21.0014 13.3961 21.9678 13.7085 22.775 14.0153C23.6388 14.3435 24.4533 14.7261 25.9996 14.7262C27.546 14.7262 28.3604 14.3435 29.2242 14.0153C30.0315 13.7085 30.9983 13.3961 33.0025 13.3961ZM33.0025 14.6569C31.4833 14.6569 30.3407 15.0213 29.2896 15.3541C28.2401 15.6865 27.2812 15.9869 25.9996 15.9869C24.7182 15.9869 23.7599 15.6864 22.7105 15.3541C21.6594 15.0213 20.5168 14.6569 18.9976 14.6569C17.5475 14.6569 16.3102 15.4803 15.4625 16.5963C14.613 17.7146 14.0963 19.1934 14.0963 20.6783C14.0963 21.9487 14.4212 23.4011 14.9097 24.691C15.3941 25.9698 16.0749 27.182 16.8492 27.9176C16.9071 27.9727 17.0221 28.1309 17.1812 28.4469C17.3315 28.7452 17.4934 29.1273 17.6636 29.5729C18.0042 30.4642 18.3587 31.5547 18.7066 32.6315C19.0506 33.696 19.3905 34.7547 19.6949 35.5455C19.8458 35.9378 19.9999 36.2956 20.1529 36.5641C20.2279 36.6957 20.3204 36.8388 20.4341 36.9576C20.5283 37.056 20.7551 37.2632 21.0982 37.2633C21.4207 37.2633 21.6324 37.0762 21.7242 36.9781C21.8282 36.8671 21.9038 36.7391 21.9586 36.6295C22.0707 36.4051 22.1635 36.119 22.2388 35.8102C22.3916 35.1836 22.4986 34.3455 22.4986 33.4371C22.4986 32.1275 22.6948 30.7332 23.2427 29.692C23.512 29.1804 23.8568 28.7719 24.2896 28.4899C24.7184 28.2106 25.2711 28.031 25.9996 28.0309C26.7281 28.0309 27.2807 28.2106 27.7095 28.4899C28.1425 28.7719 28.488 29.1803 28.7574 29.692C29.3054 30.7332 29.5015 32.1275 29.5015 33.4371C29.5015 34.3455 29.6085 35.1836 29.7613 35.8102C29.8366 36.119 29.9295 36.4051 30.0416 36.6295C30.0963 36.7391 30.1719 36.8671 30.2759 36.9781C30.3677 37.0762 30.5794 37.2633 30.9019 37.2633C31.245 37.2631 31.4719 37.056 31.566 36.9576C31.6797 36.8388 31.7722 36.6957 31.8472 36.5641C32.0002 36.2956 32.1543 35.9378 32.3052 35.5455C32.6096 34.7547 32.9495 33.696 33.2935 32.6315C33.6415 31.5547 33.9959 30.4642 34.3365 29.5729C34.5067 29.1273 34.6687 28.7452 34.8189 28.4469C34.9781 28.1309 35.093 27.9726 35.1509 27.9176C35.9252 27.182 36.6051 25.9698 37.0894 24.691C37.578 23.401 37.9039 21.9487 37.9039 20.6783C37.9039 19.1934 37.3871 17.7146 36.5377 16.5963C35.6899 15.4803 34.4525 14.657 33.0025 14.6569Z" fill="#469BD1" stroke="#469BD1" stroke-width="1.40043"/>
<rect x="2.19263" y="2.19269" width="47.6147" height="47.6147" rx="9.10282" stroke="#469BD1" stroke-width="4.2013"/>
</svg>
