<svg width="28" height="28" viewBox="0 0 28 28" fill="none" xmlns="http://www.w3.org/2000/svg">
<path d="M15.3826 0.567383C16.9014 0.571433 17.6722 0.579533 18.3377 0.598433L18.5996 0.607883C18.902 0.618682 19.2004 0.632182 19.5608 0.648382C20.9972 0.715882 21.9773 0.942681 22.8373 1.27613C23.7283 1.61903 24.4789 2.08342 25.2295 2.83267C25.9162 3.5073 26.4474 4.3237 26.786 5.22485C27.1194 6.0848 27.3462 7.06489 27.4137 8.50263C27.4299 8.86173 27.4434 9.16008 27.4542 9.46383L27.4623 9.72573C27.4826 10.3899 27.4907 11.1608 27.4934 12.6795L27.4947 13.6866V15.4551C27.498 16.4398 27.4877 17.4245 27.4637 18.4089L27.4556 18.6708C27.4448 18.9745 27.4313 19.2729 27.4151 19.632C27.3476 21.0697 27.1181 22.0484 26.786 22.9097C26.4474 23.8109 25.9162 24.6273 25.2295 25.3019C24.5548 25.9887 23.7384 26.5199 22.8373 26.8585C21.9773 27.1919 20.9972 27.4187 19.5608 27.4862L18.5996 27.5267L18.3377 27.5348C17.6722 27.5537 16.9014 27.5632 15.3826 27.5659L14.3755 27.5672H12.6084C11.6232 27.5707 10.6381 27.5603 9.65325 27.5362L9.39135 27.5281C9.07088 27.5159 8.75047 27.502 8.43016 27.4862C6.99377 27.4187 6.01367 27.1919 5.15238 26.8585C4.25171 26.5197 3.43579 25.9885 2.76154 25.3019C2.07432 24.6274 1.54265 23.811 1.20365 22.9097C0.870206 22.0498 0.643407 21.0697 0.575908 19.632L0.535408 18.6708L0.528658 18.4089C0.503773 17.4245 0.492522 16.4398 0.494908 15.4551V12.6795C0.491172 11.6948 0.501073 10.7101 0.524608 9.72573L0.534058 9.46383C0.544858 9.16008 0.558358 8.86173 0.574558 8.50263C0.642058 7.06489 0.868856 6.08615 1.2023 5.22485C1.54209 4.32333 2.0747 3.5069 2.76289 2.83267C3.43675 2.14626 4.25219 1.61508 5.15238 1.27613C6.01367 0.942681 6.99242 0.715882 8.43016 0.648382C8.78926 0.632182 9.08895 0.618682 9.39135 0.607883L9.65325 0.599783C10.6377 0.575797 11.6223 0.565446 12.607 0.568733L15.3826 0.567383ZM13.9948 7.31734C12.2046 7.31734 10.4877 8.02849 9.22188 9.29436C7.95602 10.5602 7.24487 12.2771 7.24487 14.0673C7.24487 15.8575 7.95602 17.5744 9.22188 18.8402C10.4877 20.1061 12.2046 20.8173 13.9948 20.8173C15.785 20.8173 17.5019 20.1061 18.7678 18.8402C20.0336 17.5744 20.7448 15.8575 20.7448 14.0673C20.7448 12.2771 20.0336 10.5602 18.7678 9.29436C17.5019 8.02849 15.785 7.31734 13.9948 7.31734ZM13.9948 10.0173C14.5267 10.0172 15.0533 10.1219 15.5447 10.3254C16.0361 10.5288 16.4826 10.827 16.8588 11.2031C17.2349 11.5791 17.5333 12.0255 17.7369 12.5168C17.9405 13.0081 18.0454 13.5348 18.0455 14.0666C18.0456 14.5985 17.9409 15.1251 17.7374 15.6165C17.534 16.1079 17.2358 16.5544 16.8597 16.9306C16.4837 17.3067 16.0373 17.6051 15.546 17.8087C15.0546 18.0123 14.528 18.1172 13.9962 18.1173C12.9221 18.1173 11.8919 17.6906 11.1324 16.9311C10.3729 16.1715 9.9462 15.1414 9.9462 14.0673C9.9462 12.9932 10.3729 11.9631 11.1324 11.2035C11.8919 10.444 12.9221 10.0173 13.9962 10.0173M21.0836 5.29235C20.6361 5.29235 20.2069 5.47014 19.8904 5.78661C19.5739 6.10307 19.3961 6.53229 19.3961 6.97984C19.3961 7.42739 19.5739 7.85661 19.8904 8.17308C20.2069 8.48954 20.6361 8.66733 21.0836 8.66733C21.5312 8.66733 21.9604 8.48954 22.2769 8.17308C22.5933 7.85661 22.7711 7.42739 22.7711 6.97984C22.7711 6.53229 22.5933 6.10307 22.2769 5.78661C21.9604 5.47014 21.5312 5.29235 21.0836 5.29235Z" fill="white"/>
</svg>
