<svg width="42" height="40" viewBox="0 0 42 40" fill="none" xmlns="http://www.w3.org/2000/svg">
<path d="M4.50079 0.69104C3.37152 0.69104 2.28849 1.14343 1.48998 1.9487C0.691461 2.75397 0.242859 3.84614 0.242859 4.98496V15.7198C0.242859 20.7952 3.96642 24.795 8.75872 26.0466V28.6015C8.75879 28.9792 8.85763 29.3501 9.04527 29.6769C9.23292 30.0037 9.50272 30.2749 9.82746 30.4629C9.89992 32.8553 10.9016 35.1232 12.6166 36.7778C14.3317 38.4323 16.6227 39.341 18.9959 39.3081C21.3691 39.2751 23.6345 38.3031 25.3037 36.6016C26.9729 34.9001 27.9123 32.6052 27.9194 30.2117V28.6015C27.9185 27.8828 28.156 27.1843 28.5941 26.6174C29.0323 26.0505 29.6459 25.6478 30.3373 25.4732C31.0287 25.2986 31.7581 25.3623 32.4095 25.6542C33.0608 25.946 33.5966 26.4492 33.9316 27.0836C32.8595 27.6598 32.0152 28.5884 31.5387 29.7153C31.0623 30.8422 30.9824 32.0996 31.3125 33.2785C31.6425 34.4575 32.3625 35.4872 33.3529 36.1965C34.3433 36.9059 35.5446 37.2522 36.7571 37.178C37.9697 37.1037 39.1206 36.6135 40.0187 35.7885C40.9168 34.9636 41.508 33.8537 41.6942 32.6431C41.8804 31.4325 41.6504 30.1941 41.0423 29.1336C40.4342 28.0731 39.4846 27.2543 38.3513 26.8131C37.9118 25.0347 36.8432 23.4794 35.3464 22.4397C33.8497 21.4 32.0278 20.9475 30.2235 21.1671C28.4191 21.3868 26.7564 22.2636 25.548 23.6326C24.3396 25.0017 23.6687 26.7687 23.6615 28.6015V30.2117C23.6608 31.4711 23.1725 32.6804 22.3006 33.582C21.4287 34.4836 20.2422 35.0062 18.9938 35.0384C17.7454 35.0706 16.5339 34.6098 15.6174 33.7544C14.7009 32.8989 14.152 31.7163 14.0875 30.4586C14.4097 30.2696 14.6769 29.9985 14.8626 29.6726C15.0483 29.3467 15.1459 28.9774 15.1456 28.6015V26.0466C19.9379 24.795 23.6615 20.7952 23.6615 15.7198V4.98496C23.6615 3.84614 23.2129 2.75397 22.4144 1.9487C21.6158 1.14343 20.5328 0.69104 19.4035 0.69104H17.2746C16.7099 0.69104 16.1684 0.917237 15.7692 1.31987C15.3699 1.7225 15.1456 2.26859 15.1456 2.838C15.1456 3.40741 15.3699 3.9535 15.7692 4.35613C16.1684 4.75876 16.7099 4.98496 17.2746 4.98496H19.4035V15.7198C19.4035 19.0476 16.3102 22.1606 11.9522 22.1606C7.59418 22.1606 4.50079 19.0476 4.50079 15.7198V4.98496H6.62976C7.19439 4.98496 7.7359 4.75876 8.13516 4.35613C8.53442 3.9535 8.75872 3.40741 8.75872 2.838C8.75872 2.26859 8.53442 1.7225 8.13516 1.31987C7.7359 0.917237 7.19439 0.69104 6.62976 0.69104H4.50079Z" fill="#469BD1"/>
</svg>
