<svg width="26" height="27" viewBox="0 0 26 27" fill="none" xmlns="http://www.w3.org/2000/svg">
<path d="M7.08925 1.91992C7.74481 1.91992 10.3671 7.90592 10.3671 8.57103C10.3671 9.90126 8.40038 11.2315 7.74481 12.5617C7.08925 13.8919 8.40038 15.2221 9.71152 16.5524C10.2229 17.0712 12.3338 19.2128 13.6449 18.5477C14.9561 17.8826 16.2672 15.8873 17.5783 15.8873C18.2339 15.8873 24.134 18.5477 24.134 19.2128C24.134 21.8733 22.1673 23.8686 20.2006 24.5337C18.2339 25.1988 16.9228 25.1988 14.3005 24.5337C11.6782 23.8686 9.71152 23.2035 6.43368 19.8779C3.15584 16.5524 2.50027 14.557 1.8447 11.8966C1.18914 9.23614 1.18914 7.90592 1.8447 5.91059C2.50027 3.91526 4.46697 1.91992 7.08925 1.91992Z" stroke="#0E2321" stroke-width="2.66044" stroke-linecap="round" stroke-linejoin="round"/>
</svg>
