<svg width="35" height="35" viewBox="0 0 35 35" fill="none" xmlns="http://www.w3.org/2000/svg">
<path d="M28.0858 34.795C26.6041 34.795 24.5227 34.2592 21.4059 32.5182C17.6158 30.3932 14.6842 28.4313 10.9146 24.6723C7.28009 21.0408 5.51142 18.6896 3.03605 14.186C0.239587 9.10116 0.716292 6.43577 1.24917 5.2966C1.88376 3.93507 2.82047 3.12073 4.03121 2.31246C4.7189 1.86198 5.44665 1.47582 6.20523 1.15887C6.28114 1.12624 6.35173 1.09512 6.41473 1.06704C6.79048 0.897799 7.35979 0.642037 8.08092 0.915255C8.56218 1.09588 8.99182 1.46548 9.66437 2.12956C11.0436 3.48957 12.9284 6.51849 13.6238 8.00601C14.0906 9.00857 14.3995 9.67036 14.4003 10.4126C14.4003 11.2816 13.9631 11.9517 13.4325 12.675C13.333 12.8108 13.2343 12.9406 13.1387 13.0666C12.561 13.8255 12.4343 14.0449 12.5178 14.4365C12.687 15.2235 13.9494 17.5663 16.024 19.636C18.0986 21.7056 20.3743 22.888 21.1645 23.0565C21.5729 23.1438 21.7968 23.0117 22.5802 22.4137C22.6925 22.3279 22.8079 22.2391 22.9286 22.1503C23.7378 21.5485 24.3769 21.1227 25.2256 21.1227H25.2301C25.9687 21.1227 26.601 21.443 27.6486 21.9712C29.0149 22.6603 32.1355 24.5205 33.5042 25.901C34.1699 26.5719 34.5411 26.9999 34.7225 27.4804C34.9958 28.2036 34.7384 28.7705 34.5707 29.15C34.5426 29.213 34.5115 29.2821 34.4788 29.3587C34.1593 30.1158 33.7708 30.8419 33.3182 31.5278C32.5113 32.7345 31.6937 33.6687 30.3289 34.304C29.6281 34.6354 28.8611 34.8033 28.0858 34.795Z" fill="#0B7192"/>
</svg>
