<svg width="34" height="35" viewBox="0 0 34 35" fill="none" xmlns="http://www.w3.org/2000/svg">
<path d="M27.2437 34.7073C25.7619 34.7073 23.6805 34.1715 20.5637 32.4305C16.7736 30.3054 13.842 28.3436 10.0724 24.5846C6.43793 20.9531 4.66926 18.6019 2.19389 14.0983C-0.602576 9.01345 -0.125871 6.34806 0.407005 5.2089C1.0416 3.84736 1.97831 3.03302 3.18905 2.22475C3.87674 1.77427 4.60449 1.38811 5.36306 1.07117C5.43897 1.03853 5.50957 1.00742 5.57257 0.979335C5.94832 0.810092 6.51763 0.55433 7.23876 0.827548C7.72002 1.00817 8.14966 1.37778 8.82221 2.04185C10.2015 3.40186 12.0863 6.43078 12.7816 7.9183C13.2484 8.92086 13.5574 9.58265 13.5581 10.3249C13.5581 11.1939 13.1209 11.864 12.5903 12.5873C12.4909 12.7231 12.3922 12.8529 12.2965 12.9789C11.7189 13.7378 11.5921 13.9572 11.6756 14.3488C11.8449 15.1358 13.1072 17.4786 15.1818 19.5483C17.2564 21.6179 19.5321 22.8003 20.3223 22.9688C20.7307 23.0561 20.9546 22.924 21.738 22.326C21.8504 22.2402 21.9657 22.1514 22.0864 22.0626C22.8956 21.4608 23.5348 21.035 24.3834 21.035H24.388C25.1266 21.035 25.7589 21.3553 26.8064 21.8835C28.1728 22.5726 31.2934 24.4328 32.662 25.8133C33.3277 26.4842 33.6989 26.9122 33.8803 27.3926C34.1536 28.1159 33.8963 28.6828 33.7285 29.0623C33.7004 29.1253 33.6693 29.1944 33.6367 29.271C33.3171 30.0281 32.9286 30.7542 32.476 31.4401C31.6691 32.6468 30.8516 33.581 29.4867 34.2163C28.7859 34.5477 28.0189 34.7156 27.2437 34.7073Z" fill="white"/>
</svg>
