<svg width="25" height="30" viewBox="0 0 25 30" fill="none" xmlns="http://www.w3.org/2000/svg">
<path d="M12.3652 25.7944L18.8247 19.2098C20.1021 17.9075 20.972 16.2483 21.3244 14.4421C21.6768 12.6359 21.4959 10.7637 20.8045 9.06227C20.113 7.36087 18.9422 5.90666 17.4401 4.88354C15.9379 3.86042 14.1718 3.31433 12.3652 3.31433C10.5586 3.31433 8.79251 3.86042 7.29034 4.88354C5.78817 5.90666 4.61736 7.36087 3.92595 9.06227C3.23454 10.7637 3.05358 12.6359 3.40597 14.4421C3.75836 16.2483 4.62826 17.9075 5.90568 19.2098L12.3652 25.7944ZM12.3652 29.5562L4.06047 21.0907C2.41798 19.4164 1.29943 17.2832 0.846269 14.9609C0.393113 12.6385 0.625704 10.2314 1.51463 8.04379C2.40355 5.8562 3.90889 3.98644 5.84027 2.67095C7.77166 1.35546 10.0423 0.65332 12.3652 0.65332C14.6881 0.65332 16.9587 1.35546 18.8901 2.67095C20.8215 3.98644 22.3268 5.8562 23.2158 8.04379C24.1047 10.2314 24.3373 12.6385 23.8841 14.9609C23.431 17.2832 22.3124 19.4164 20.6699 21.0907L12.3652 29.5562ZM12.3652 15.2856C13.0574 15.2856 13.7212 15.0053 14.2107 14.5064C14.7001 14.0075 14.9751 13.3308 14.9751 12.6252C14.9751 11.9196 14.7001 11.2429 14.2107 10.744C13.7212 10.2451 13.0574 9.96475 12.3652 9.96475C11.673 9.96475 11.0092 10.2451 10.5197 10.744C10.0303 11.2429 9.75529 11.9196 9.75529 12.6252C9.75529 13.3308 10.0303 14.0075 10.5197 14.5064C11.0092 15.0053 11.673 15.2856 12.3652 15.2856ZM12.3652 17.9461C10.9808 17.9461 9.65314 17.3855 8.67423 16.3876C7.69533 15.3898 7.14538 14.0364 7.14538 12.6252C7.14538 11.214 7.69533 9.86062 8.67423 8.86276C9.65314 7.86491 10.9808 7.30432 12.3652 7.30432C13.7496 7.30432 15.0773 7.86491 16.0562 8.86276C17.0351 9.86062 17.585 11.214 17.585 12.6252C17.585 14.0364 17.0351 15.3898 16.0562 16.3876C15.0773 17.3855 13.7496 17.9461 12.3652 17.9461Z" fill="#0E2321"/>
</svg>
