<svg width="56" height="52" viewBox="0 0 56 52" fill="none" xmlns="http://www.w3.org/2000/svg">
<path d="M11.1595 9.1593C17.7659 9.1593 17.7663 11.2969 22.1703 11.297C24.362 11.297 25.4632 10.7673 26.8304 10.2355C26.3282 11.7282 26.057 13.3273 26.057 14.9894C26.057 14.993 26.057 14.9965 26.057 15.0001C24.8998 15.3242 23.6614 15.5724 22.1703 15.5724C17.7662 15.5723 15.5638 13.4347 11.1595 13.4347C7.48198 13.4348 4.5531 17.7097 4.5531 21.9845C4.55317 25.725 6.44739 30.7694 8.53943 32.7999C10.4333 34.6392 13.2301 47.505 14.4633 47.505C14.9257 47.5042 15.5638 45.2391 15.5638 42.4825C15.5638 38.1223 16.8193 32.6713 22.1703 32.671C27.5216 32.671 28.7777 38.1222 28.7777 42.4825C28.7778 45.2396 29.4159 47.5049 29.8783 47.505C31.1115 47.505 33.9082 34.6388 35.8021 32.7999C36.5662 32.0583 37.3024 30.9136 37.931 29.5782C38.9073 29.7795 39.9186 29.8859 40.9545 29.8859C41.5224 29.8858 42.0828 29.853 42.6342 29.7911C41.8322 31.9534 40.8107 33.8164 39.7885 34.8087C37.5863 36.9461 35.3839 51.9073 30.9799 51.9083C20.9819 51.9083 26.5747 36.9464 22.1703 36.9464C17.7666 36.9473 23.3593 51.9083 13.3617 51.9083C8.95747 51.9078 6.75525 36.9461 4.5531 34.8087C2.35097 32.6713 0.148871 26.4944 0.148804 21.9845C0.148804 15.5723 4.55309 9.15943 11.1595 9.1593Z" fill="#469BD1"/>
<path d="M30.6048 25.7044C29.182 24.3302 28.0471 22.6864 27.2663 20.8689C26.4856 19.0514 26.0746 17.0965 26.0574 15.1185C26.0403 13.1405 26.4172 11.1788 27.1662 9.34803C27.9153 7.51722 29.0214 5.85393 30.4202 4.45519C31.8189 3.05646 33.4822 1.9503 35.313 1.20126C37.1438 0.452216 39.1054 0.0752928 41.0835 0.0924814C43.0615 0.10967 45.0163 0.520626 46.8338 1.30137C48.6513 2.08212 50.2952 3.21701 51.6694 4.63984C54.383 7.44948 55.8846 11.2125 55.8506 15.1185C55.8167 19.0245 54.25 22.7609 51.4879 25.5229C48.7259 28.285 44.9895 29.8517 41.0835 29.8857C37.1775 29.9196 33.4144 28.418 30.6048 25.7044ZM49.5689 23.6039C51.8051 21.3677 53.0614 18.3347 53.0614 15.1721C53.0614 12.0096 51.8051 8.97659 49.5689 6.74034C47.3326 4.50409 44.2996 3.24778 41.1371 3.24778C37.9746 3.24778 34.9416 4.50409 32.7053 6.74034C30.4691 8.97659 29.2127 12.0096 29.2127 15.1721C29.2127 18.3347 30.4691 21.3677 32.7053 23.6039C34.9416 25.8402 37.9746 27.0965 41.1371 27.0965C44.2996 27.0965 47.3326 25.8402 49.5689 23.6039ZM36.221 14.1144L39.6474 17.5557L46.0532 11.1499L48.1388 13.2653L39.6474 21.7269L34.1354 16.2149L36.221 14.0995V14.1144Z" fill="#469BD1"/>
</svg>
