<svg width="15" height="12" viewBox="0 0 15 12" fill="none" xmlns="http://www.w3.org/2000/svg">
<path d="M1.69245 4.70069L11.2725 4.88576L7.98605 1.59931C7.82984 1.4431 7.73973 1.2336 7.73555 1.01688C7.73136 0.800155 7.81344 0.593975 7.96372 0.443691C8.114 0.293407 8.32018 0.211331 8.5369 0.215518C8.75362 0.219705 8.96313 0.309812 9.11934 0.466017L13.8017 5.14833C13.9579 5.30454 14.048 5.51405 14.0522 5.73077C14.0563 5.94749 13.9743 6.15367 13.824 6.30395L9.29082 10.8371C9.14053 10.9874 8.93435 11.0695 8.71763 11.0653C8.50091 11.0611 8.29141 10.971 8.1352 10.8148L8.16465 10.8442C8.00845 10.688 7.91834 10.4785 7.91415 10.2618C7.90997 10.0451 7.99204 9.8389 8.14233 9.68862L11.2872 6.54374L1.74182 6.35933C1.63396 6.35769 1.52666 6.3347 1.42612 6.2917C1.32558 6.2487 1.23379 6.18652 1.15604 6.10877C1.07829 6.03102 1.01611 5.93923 0.973111 5.83869C0.930107 5.73815 0.907121 5.63085 0.905479 5.52299C0.90065 5.41507 0.91722 5.30809 0.954238 5.20821C0.991254 5.10834 1.04798 5.01756 1.12115 4.94111C1.19432 4.86466 1.28247 4.80405 1.38052 4.76278C1.47858 4.72152 1.58459 4.70042 1.69245 4.70069Z" fill="white"/>
</svg>
