<svg width="202" height="31" viewBox="0 0 202 31" fill="none" xmlns="http://www.w3.org/2000/svg">
<path d="M16.7965 25.8987L8.98979 30.6248C8.64491 30.8453 8.28437 30.9398 7.90814 30.9083C7.53192 30.8768 7.20272 30.7508 6.92055 30.5302C6.63838 30.3097 6.41892 30.0343 6.26216 29.7041C6.1054 29.3739 6.07404 29.0034 6.1681 28.5926L8.23734 19.6603L1.32421 13.6583C1.01069 13.3747 0.815049 13.0514 0.737296 12.6885C0.659543 12.3255 0.682743 11.9714 0.806898 11.6261C0.931052 11.2808 1.11916 10.9972 1.37123 10.7754C1.62331 10.5536 1.96818 10.4118 2.40585 10.35L11.5293 9.54661L15.0564 1.13425C15.2132 0.756167 15.4565 0.472604 15.7863 0.283562C16.1161 0.0945206 16.4528 0 16.7965 0C17.1401 0 17.4768 0.0945206 17.8066 0.283562C18.1364 0.472604 18.3797 0.756167 18.5365 1.13425L22.0636 9.54661L31.187 10.35C31.626 10.4131 31.9708 10.5548 32.2217 10.7754C32.4725 10.9959 32.6606 11.2795 32.786 11.6261C32.9114 11.9726 32.9352 12.3274 32.8575 12.6904C32.7797 13.0533 32.5835 13.376 32.2687 13.6583L25.3556 19.6603L27.4248 28.5926C27.5189 29.0022 27.4875 29.3727 27.3307 29.7041C27.174 30.0356 26.9545 30.311 26.6724 30.5302C26.3902 30.7495 26.061 30.8756 25.6848 30.9083C25.3085 30.9411 24.948 30.8466 24.6031 30.6248L16.7965 25.8987Z" fill="#F6C700"/>
<path d="M59.0062 25.8987L51.1995 30.6248C50.8546 30.8453 50.4941 30.9398 50.1179 30.9083C49.7416 30.8768 49.4124 30.7508 49.1303 30.5302C48.8481 30.3097 48.6286 30.0343 48.4719 29.7041C48.3151 29.3739 48.2838 29.0034 48.3778 28.5926L50.4471 19.6603L43.5339 13.6583C43.2204 13.3747 43.0248 13.0514 42.947 12.6885C42.8693 12.3255 42.8925 11.9714 43.0166 11.6261C43.1408 11.2808 43.3289 10.9972 43.581 10.7754C43.833 10.5536 44.1779 10.4118 44.6156 10.35L53.739 9.54661L57.2661 1.13425C57.4229 0.756167 57.6662 0.472604 57.996 0.283562C58.3258 0.0945206 58.6625 0 59.0062 0C59.3498 0 59.6865 0.0945206 60.0163 0.283562C60.3462 0.472604 60.5894 0.756167 60.7462 1.13425L64.2733 9.54661L73.3968 10.35C73.8357 10.4131 74.1806 10.5548 74.4314 10.7754C74.6822 10.9959 74.8703 11.2795 74.9957 11.6261C75.1211 11.9726 75.145 12.3274 75.0672 12.6904C74.9894 13.0533 74.7932 13.376 74.4784 13.6583L67.5653 19.6603L69.6345 28.5926C69.7286 29.0022 69.6972 29.3727 69.5405 29.7041C69.3837 30.0356 69.1642 30.311 68.8821 30.5302C68.5999 30.7495 68.2707 30.8756 67.8945 30.9083C67.5183 30.9411 67.1577 30.8466 66.8128 30.6248L59.0062 25.8987Z" fill="#F6C700"/>
<path d="M101.216 25.8987L93.4092 30.6248C93.0643 30.8453 92.7038 30.9398 92.3276 30.9083C91.9513 30.8768 91.6222 30.7508 91.34 30.5302C91.0578 30.3097 90.8384 30.0343 90.6816 29.7041C90.5248 29.3739 90.4935 29.0034 90.5875 28.5926L92.6568 19.6603L85.7436 13.6583C85.4301 13.3747 85.2345 13.0514 85.1567 12.6885C85.079 12.3255 85.1022 11.9714 85.2263 11.6261C85.3505 11.2808 85.5386 10.9972 85.7907 10.7754C86.0427 10.5536 86.3876 10.4118 86.8253 10.35L95.9487 9.54661L99.4758 1.13425C99.6326 0.756167 99.8759 0.472604 100.206 0.283562C100.536 0.0945206 100.872 0 101.216 0C101.56 0 101.896 0.0945206 102.226 0.283562C102.556 0.472604 102.799 0.756167 102.956 1.13425L106.483 9.54661L115.606 10.35C116.045 10.4131 116.39 10.5548 116.641 10.7754C116.892 10.9959 117.08 11.2795 117.205 11.6261C117.331 11.9726 117.355 12.3274 117.277 12.6904C117.199 13.0533 117.003 13.376 116.688 13.6583L109.775 19.6603L111.844 28.5926C111.938 29.0022 111.907 29.3727 111.75 29.7041C111.593 30.0356 111.374 30.311 111.092 30.5302C110.81 30.7495 110.48 30.8756 110.104 30.9083C109.728 30.9411 109.367 30.8466 109.023 30.6248L101.216 25.8987Z" fill="#F6C700"/>
<path d="M143.426 25.8987L135.619 30.6248C135.274 30.8453 134.914 30.9398 134.537 30.9083C134.161 30.8768 133.832 30.7508 133.55 30.5302C133.268 30.3097 133.048 30.0343 132.891 29.7041C132.735 29.3739 132.703 29.0034 132.797 28.5926L134.866 19.6603L127.953 13.6583C127.64 13.3747 127.444 13.0514 127.366 12.6885C127.289 12.3255 127.312 11.9714 127.436 11.6261C127.56 11.2808 127.748 10.9972 128 10.7754C128.252 10.5536 128.597 10.4118 129.035 10.35L138.158 9.54661L141.686 1.13425C141.842 0.756167 142.086 0.472604 142.415 0.283562C142.745 0.0945206 143.082 0 143.426 0C143.769 0 144.106 0.0945206 144.436 0.283562C144.766 0.472604 145.009 0.756167 145.166 1.13425L148.693 9.54661L157.816 10.35C158.255 10.4131 158.6 10.5548 158.851 10.7754C159.102 10.9959 159.29 11.2795 159.415 11.6261C159.541 11.9726 159.564 12.3274 159.487 12.6904C159.409 13.0533 159.213 13.376 158.898 13.6583L151.985 19.6603L154.054 28.5926C154.148 29.0022 154.117 29.3727 153.96 29.7041C153.803 30.0356 153.584 30.311 153.302 30.5302C153.019 30.7495 152.69 30.8756 152.314 30.9083C151.938 30.9411 151.577 30.8466 151.232 30.6248L143.426 25.8987Z" fill="#F6C700"/>
<path d="M185.635 25.8987L177.829 30.6248C177.484 30.8453 177.123 30.9398 176.747 30.9083C176.371 30.8768 176.042 30.7508 175.759 30.5302C175.477 30.3097 175.258 30.0343 175.101 29.7041C174.944 29.3739 174.913 29.0034 175.007 28.5926L177.076 19.6603L170.163 13.6583C169.85 13.3747 169.654 13.0514 169.576 12.6885C169.498 12.3255 169.522 11.9714 169.646 11.6261C169.77 11.2808 169.958 10.9972 170.21 10.7754C170.462 10.5536 170.807 10.4118 171.245 10.35L180.368 9.54661L183.895 1.13425C184.052 0.756167 184.295 0.472604 184.625 0.283562C184.955 0.0945206 185.292 0 185.635 0C185.979 0 186.316 0.0945206 186.645 0.283562C186.975 0.472604 187.219 0.756167 187.375 1.13425L190.902 9.54661L200.026 10.35C200.465 10.4131 200.81 10.5548 201.061 10.7754C201.311 10.9959 201.499 11.2795 201.625 11.6261C201.75 11.9726 201.774 12.3274 201.696 12.6904C201.619 13.0533 201.422 13.376 201.108 13.6583L194.194 19.6603L196.264 28.5926C196.358 29.0022 196.326 29.3727 196.17 29.7041C196.013 30.0356 195.793 30.311 195.511 30.5302C195.229 30.7495 194.9 30.8756 194.524 30.9083C194.147 30.9411 193.787 30.8466 193.442 30.6248L185.635 25.8987Z" fill="#F6C700"/>
</svg>
